{"title":"Shanghai.Kiss.2007.DVDRiP.XViD.OPTIONAL.NORDIC-Zen_Bud","uid":5855029,"size":763537151,"categoryP":"video","categoryS":"movies","magnet":"?xt=urn:btih:6b270d06e51c550d499dec446d095f7ec24f8d02&amp;dn=Shanghai.Kiss.2007.DVDRiP.XViD.OPTIONAL.NORDIC-Zen_Bud&amp;tr=udp%3A%2F%2Ftracker.openbittorrent.com%3A80&amp;tr=udp%3A%2F%2Fopen.demonii.com%3A1337&amp;tr=udp%3A%2F%2Ftracker.coppersurfer.tk%3A6969&amp;tr=udp%3A%2F%2Fexodus.desync.com%3A6969","seeders":1,"leechers":0,"uploader":"Zen_Bud","files":-1,"time":1285569745,"description":"\n******** Shanghai.Kiss.2007.DVDRiP.XViD.OPTIONAL.NORDIC-Zen_Bud *******\n\nFormat                           : AVI\nFile size                        : 711 MiB\nDuration                         : 1h 41mn\nOverall bit rate                 : 976 Kbps\n\nVideo\n\nFormat                           : MPEG-4 Visual\nCodec ID/Hint                    : XviD\nDuration                         : 1h 41mn\nBit rate                         : 835 Kbps\nWidth                            : 720 pixels\nHeight                           : 576 pixels\nDisplay aspect ratio             : 16:9\nStream size                      : 609 MiB (86%)\nWriting library                  : XviD 1.1.2 (UTC 2006-11-01)\n\nAudio\n\nFormat                           : MPEG Audio\nCodec ID/Hint                    : MP3\nDuration                         : 1h 41mn\nBit rate                         : 128 Kbps\nChannel(s)                       : 2 channels\nSampling rate                    : 48.0 KHz\nStream size                      : 93.3 MiB (13%)\nLanguage                         : English\n\nText #1\nLanguage                         : Danish\n\nText #2\nLanguage                         : Norwegian\n\nText #3\nLanguage                         : Swedish\n\nText #4\nLanguage                         : Finnish\n\n","torrent":{"xt":"urn:btih:6b270d06e51c550d499dec446d095f7ec24f8d02","amp;dn":"Shanghai.Kiss.2007.DVDRiP.XViD.OPTIONAL.NORDIC-Zen_Bud","amp;tr":["udp%3A%2F%2Ftracker.openbittorrent.com%3A80","udp%3A%2F%2Fopen.demonii.com%3A1337","udp%3A%2F%2Ftracker.coppersurfer.tk%3A6969","udp%3A%2F%2Fexodus.desync.com%3A6969"],"infoHash":"6b270d06e51c550d499dec446d095f7ec24f8d02","infoHashBuffer":{"type":"Buffer","data":[107,39,13,6,229,28,85,13,73,157,236,68,109,9,95,126,194,79,141,2]},"announce":[],"urlList":[]}}